<?xml version="1.0" standalone="no"?>
<!DOCTYPE svg PUBLIC "-//W3C//DTD SVG 20010904//EN"
 "http://www.w3.org/TR/2001/REC-SVG-20010904/DTD/svg10.dtd">
<svg version="1.0" xmlns="http://www.w3.org/2000/svg"
 width="155.000000pt" height="161.000000pt" viewBox="0 0 155.000000 161.000000"
 preserveAspectRatio="xMidYMid meet">

<g transform="translate(0.000000,161.000000) scale(0.100000,-0.100000)"
fill="#000000" stroke="none">
<path d="M460 1571 c-178 -57 -345 -189 -421 -334 l-20 -37 192 2 192 3 57
170 c74 218 73 215 63 214 -4 0 -33 -8 -63 -18z"/>
<path d="M400 983 c-196 -590 -202 -610 -197 -674 8 -116 75 -208 195 -265 30
-14 55 -24 57 -22 1 2 92 271 201 598 l199 595 296 3 297 2 11 63 c14 81 14
84 -4 144 -17 57 -66 113 -125 143 -37 19 -59 20 -384 20 l-345 0 -201 -607z"/>
<path d="M862 1007 c-10 -11 -142 -367 -142 -381 0 -3 105 -6 233 -6 208 1
234 3 253 19 26 21 47 62 104 203 49 121 49 150 -1 167 -47 16 -433 15 -447
-2z"/>
<path d="M582 209 c-34 -100 -60 -184 -57 -187 8 -8 164 28 235 54 109 41 199
102 298 200 50 51 92 97 92 103 0 8 -77 11 -253 11 l-252 0 -63 -181z"/>
</g>
</svg>
